<?xml version="1.0" encoding="utf-8"?>
<!-- Generator: Adobe Illustrator 27.5.0, SVG Export Plug-In . SVG Version: 6.00 Build 0)  -->
<svg version="1.1" xmlns="http://www.w3.org/2000/svg" xmlns:xlink="http://www.w3.org/1999/xlink" x="0px" y="0px"
	 viewBox="0 0 3710 3710" style="enable-background:new 0 0 3710 3710;" xml:space="preserve">
<g id="Background">
	<g>
		<g>
			<rect style="fill:#FFFFFF;" width="3710" height="3710"/>
		</g>
	</g>
</g>
<g id="Illustration">
	<g>
		<path style="fill:#F4F7FA;" d="M3159.195,1226.67c57.251-676.577-611.116-893.53-1076.025-708.457
			c-468.681,186.575-585.991-99.189-1249.299,0.785c-671.635,101.229-302.044,1136.91-302.044,1136.91
			s131.107,905.593,269.143,1320.98c137.29,413.139,1342.635,230.66,1636.491,210.496c292.164-20.049,546.95-2.882,789.402-466.848
			C3468.87,2257.417,3102.134,1901.003,3159.195,1226.67z"/>
		<g>
			<g>
				<g>
					<defs>
						<path id="SVGID_1_" d="M1907.412,2917.356c-51.839-55.624-119.182-144.832-144.218-266.261
							c-32.834-159.252,35.946-234.004,46.539-499.185c6.698-167.672,9.683-284.754-70.507-352.863
							c-62.841-53.374-169.236-70.282-237.246-29.278c-56.548,34.094-93.179,112.219-106.555,168.841
							c-10.901,46.147-6.932,80.45-35.482,103.23c-29.177,23.28-57.902,7.066-84.857,23.95
							c-54.664,34.241-32.86,161.268-29.337,181.797c39.199,228.372,236.106,393.826,322.867,464.963
							C1640.352,2771.368,1752.099,2850.831,1907.412,2917.356z"/>
					</defs>
					
						<linearGradient id="SVGID_00000120549369051429736810000014850551056368340393_" gradientUnits="userSpaceOnUse" x1="1238.5021" y1="2332.1455" x2="1907.4122" y2="2332.1455">
						<stop  offset="0" style="stop-color:#FF9085"/>
						<stop  offset="1" style="stop-color:#FB6FBB"/>
					</linearGradient>
					
						<use xlink:href="#SVGID_1_"  style="overflow:visible;fill:url(#SVGID_00000120549369051429736810000014850551056368340393_);"/>
					<clipPath id="SVGID_00000088835790374287311210000013823055973594567830_">
						<use xlink:href="#SVGID_1_"  style="overflow:visible;"/>
					</clipPath>
					<g style="opacity:0.5;clip-path:url(#SVGID_00000088835790374287311210000013823055973594567830_);">
						<path style="fill:#FFFFFF;" d="M1967.34,2964.227c-94.101-43.168-174.286-92.521-238.327-146.689
							c-94.904-80.271-151.426-169.002-167.994-263.729c-12.952-74.043-1.06-152.416,13.993-251.638
							c12.479-82.253,28.721-139.349,43.051-189.724c18.524-65.12,33.155-116.555,30.493-192.443
							c-2.705-77.13-22.871-155.009-59.937-231.474l6.343-3.073c37.496,77.352,57.897,156.183,60.639,234.3
							c2.702,76.998-12.066,128.904-30.758,194.62c-14.273,50.172-30.45,107.04-42.86,188.836
							c-15.545,102.457-26.774,176.473-14.022,249.382c16.276,93.056,71.993,180.386,165.603,259.563
							c63.552,53.753,143.195,102.762,236.714,145.665L1967.34,2964.227z"/>
						<path style="fill:#FFFFFF;" d="M1586.604,2246.726l-0.878-3.884c-34.436-152.146-107.961-250.812-163.576-306.79
							c-60.176-60.566-112.716-85.456-113.239-85.701l2.981-6.388c0.535,0.25,54.209,25.675,115.259,87.12
							c55.779,56.144,129.355,154.686,164.533,306.205c13.391-5.476,60.973-26.79,110.109-71.074
							c53.16-47.911,119.102-133.339,131.359-268.231l7.021,0.637c-12.477,137.304-79.693,224.261-133.885,273.031
							c-58.716,52.845-115.37,73.529-115.936,73.732L1586.604,2246.726z"/>
						<path style="fill:#FFFFFF;" d="M1560.573,2468.714l-2.404-0.885c-71.587-26.33-148.735-115.755-229.304-265.791
							c-59.814-111.389-99.265-216.474-99.657-217.524l6.605-2.464c1.549,4.149,156.174,413.806,322.42,478.267
							c10.047-12.491,65.628-80.323,133.611-138.631c31.73-27.213,82.333-48.572,150.401-63.478
							c50.518-11.064,92.364-14.23,92.781-14.26l0.516,7.028c-1.645,0.122-165.431,12.869-239.109,76.062
							c-74.31,63.733-133.684,138.91-134.276,139.662L1560.573,2468.714z"/>
						<path style="fill:#FFFFFF;" d="M1706.661,2796.233l-6.904-1.294c-0.807-0.152-82.028-15.674-186.439-60.121
							c-96.4-41.037-232.938-115.848-335.969-239.211l-198.58-237.771l5.411-4.519l198.58,237.771
							c179.516,214.944,463.787,285.019,511.438,295.485c-35.313-77.8-22.076-158.895,38.49-234.978
							c46.735-58.709,105.856-94.269,106.448-94.622l3.607,6.058c-0.582,0.346-58.734,35.348-104.658,93.102
							c-61.184,76.945-72.795,155.603-34.513,233.79L1706.661,2796.233z"/>
					</g>
				</g>
			</g>
			<g>
				<g>
					<defs>
						<path id="SVGID_00000114787867127038261170000001832594579998475193_" d="M1757.652,2789.367
							c-98.387,40.272-229.47,77.537-371.802,71.41c-36.323-1.564-260.713-11.224-273.006-106.722
							c-4.33-33.639,21.314-49.52,16.31-94.597c-5.929-53.413-45.729-65.304-90.678-116.793
							c-26.821-30.723-105.313-120.636-65.907-203.685c23.548-49.627,88.131-94.559,147.366-103.657
							c86.885-13.345,145.239,53.016,242.031,167.009c85.803,101.051,87.292,133.713,150.348,205.4
							C1559.112,2660.935,1634.634,2729.735,1757.652,2789.367z"/>
					</defs>
					
						<linearGradient id="SVGID_00000099625838203244791500000017894885341328661431_" gradientUnits="userSpaceOnUse" x1="1451.5851" y1="2331.4446" x2="1291.8053" y2="2760.3279">
						<stop  offset="0.0036" style="stop-color:#E38DDD"/>
						<stop  offset="1" style="stop-color:#9571F6"/>
					</linearGradient>
					
						<use xlink:href="#SVGID_00000114787867127038261170000001832594579998475193_"  style="overflow:visible;fill:url(#SVGID_00000099625838203244791500000017894885341328661431_);"/>
					<clipPath id="SVGID_00000137833858369766127690000011160326437941034885_">
						<use xlink:href="#SVGID_00000114787867127038261170000001832594579998475193_"  style="overflow:visible;"/>
					</clipPath>
					<g style="opacity:0.5;clip-path:url(#SVGID_00000137833858369766127690000011160326437941034885_);">
						<path style="fill:#FFFFFF;" d="M1795.127,2790.607c-118.111,0-236.575-35.358-353.304-105.608
							c-150.69-90.686-260.729-216.846-326.509-306.711c-45.94-62.769-73.57-141.488-82.118-233.966l7.018-0.649
							c8.429,91.19,35.611,168.725,80.789,230.45c65.395,89.344,174.769,214.753,324.454,304.837
							c143.629,86.437,289.846,119.546,434.583,98.411c108.663-15.869,212.58-60.413,308.866-132.396l4.22,5.645
							c-97.236,72.694-202.23,117.686-312.067,133.727C1852.467,2788.521,1823.796,2790.607,1795.127,2790.607z"/>
						<path style="fill:#FFFFFF;" d="M1267.496,2548.202l-3.11-0.606c-268.789-52.344-330.388-212.149-342.864-259.881
							c-0.22-0.838-0.361-1.404-0.454-1.678l6.553-2.593c0.122,0.294,0.367,1.134,0.719,2.488
							c12.165,46.537,72.165,201.931,334.211,254.12c6.564-24.193,45.785-186.673-45.956-310.001l5.655-4.206
							c101.027,135.809,46.737,317.51,46.176,319.331L1267.496,2548.202z"/>
						<path style="fill:#FFFFFF;" d="M1208.548,2754.335c-16.409,0-31.17-1.179-44.18-2.991
							c-64.977-9.047-100.483-34.709-101.963-35.797l4.173-5.681c0.351,0.258,35.854,25.834,99.217,34.56
							c58.254,8.023,152.628,3.019,271.909-66.042c0.625-17.294,2.819-151.638-70.074-299.972l-79.084-160.931l6.326-3.108
							l79.083,160.931c78.586,159.919,70.791,303.938,70.703,305.374l-0.115,1.881l-1.628,0.948
							C1347.467,2739.139,1267.448,2754.335,1208.548,2754.335z"/>
					</g>
				</g>
			</g>
		</g>
		<g>
			
				<linearGradient id="SVGID_00000095337487333431200870000010015680533442154668_" gradientUnits="userSpaceOnUse" x1="2833.282" y1="2938.8376" x2="2887.3579" y2="2885.5232">
				<stop  offset="0" style="stop-color:#FCB148"/>
				<stop  offset="0.0521" style="stop-color:#FDBA46"/>
				<stop  offset="0.1424" style="stop-color:#FFC244"/>
				<stop  offset="0.3183" style="stop-color:#FFC444"/>
				<stop  offset="0.4849" style="stop-color:#FDB946"/>
				<stop  offset="0.7754" style="stop-color:#F99C4D"/>
				<stop  offset="0.8658" style="stop-color:#F8924F"/>
				<stop  offset="1" style="stop-color:#F8924F"/>
			</linearGradient>
			<path style="fill:url(#SVGID_00000095337487333431200870000010015680533442154668_);" d="M2936.3,2947.375h-41.123
				l-50.937-129.445C2844.239,2817.93,2937.701,2824.472,2936.3,2947.375z"/>
			
				<linearGradient id="SVGID_00000104702655189270326540000004775138738609799098_" gradientUnits="userSpaceOnUse" x1="1867.5603" y1="3299.658" x2="2105.7507" y2="3064.822">
				<stop  offset="0" style="stop-color:#FCB148"/>
				<stop  offset="0.0521" style="stop-color:#FDBA46"/>
				<stop  offset="0.1424" style="stop-color:#FFC244"/>
				<stop  offset="0.3183" style="stop-color:#FFC444"/>
				<stop  offset="0.4849" style="stop-color:#FDB946"/>
				<stop  offset="0.7754" style="stop-color:#F99C4D"/>
				<stop  offset="0.8658" style="stop-color:#F8924F"/>
				<stop  offset="1" style="stop-color:#F8924F"/>
			</linearGradient>
			<path style="fill:url(#SVGID_00000104702655189270326540000004775138738609799098_);" d="M1976.505,3171.243l267.636-49.599
				c0,0,24.293-206.591-95.339-226.218C2029.17,2875.799,1964.963,3035.826,1976.505,3171.243z"/>
			<g>
				
					<linearGradient id="SVGID_00000129192014574523157160000006392034121353493926_" gradientUnits="userSpaceOnUse" x1="1902.9536" y1="3087.8667" x2="2137.5332" y2="3087.8667">
					<stop  offset="0" style="stop-color:#444B8C"/>
					<stop  offset="0.9964" style="stop-color:#3E4177"/>
				</linearGradient>
				<path style="fill:url(#SVGID_00000129192014574523157160000006392034121353493926_);" d="M1989.684,2928.222
					c-0.031,0.003-0.061,0.006-0.092,0.009c-8.346,0.839-16.01,4.103-23.624,8.789c-7.321,3.713-16.157,8.088-16.157,13.675v0.125
					c-28.196,29.32-46.747,83.506-46.857,144.174c-0.146,80.799,32.732,146.109,76.093,153.646c0,0.004-0.089,0.049-0.089,0.049
					c2.925,0.422,39.253,13.576,153.75,0.615c3.035-49.174,4.825-327.581,4.825-327.581S2046.021,2916.99,1989.684,2928.222z"/>
				<g>
					
						<linearGradient id="SVGID_00000005981062646830974080000005081102428998621098_" gradientUnits="userSpaceOnUse" x1="2271.1907" y1="2800.1538" x2="2032.3473" y2="3268.3953">
						<stop  offset="0" style="stop-color:#EBEFF2"/>
						<stop  offset="0.9946" style="stop-color:#B7C0CE"/>
					</linearGradient>
					<path style="fill:url(#SVGID_00000005981062646830974080000005081102428998621098_);" d="M2218.273,3079.48
						c0,92.422-42.786,169.009-94.639,170.938c-50.859,1.892-91.3-69.015-91.205-158.259
						c0.095-89.153,40.618-165.371,91.383-170.406C2175.568,2916.619,2218.273,2987.156,2218.273,3079.48z"/>
					<path style="fill:#FFFFFF;" d="M2177.706,3081.599c-0.015,65.581-28.531,120.096-63.276,121.701
						c-34.295,1.583-61.723-49.108-61.662-113.162c0.061-64.007,27.552-118.343,61.802-121.442
						C2149.268,2965.556,2177.721,3016.068,2177.706,3081.599z"/>
				</g>
			</g>
			<g>
				
					<linearGradient id="SVGID_00000139267496168139325960000017494723087705312655_" gradientUnits="userSpaceOnUse" x1="2671.3706" y1="2967.3313" x2="2863.3706" y2="2967.3313">
					<stop  offset="0" style="stop-color:#444B8C"/>
					<stop  offset="0.9964" style="stop-color:#3E4177"/>
				</linearGradient>
				<path style="fill:url(#SVGID_00000139267496168139325960000017494723087705312655_);" d="M2743.542,2829.818
					c-0.025,0.002-0.05,0.005-0.074,0.008c-6.771,0.723-14.8,3.534-20.977,7.571c-5.939,3.199-4.346,6.967-14.92,11.779v0.108
					c-17.623,25.255-36.111,71.93-36.2,124.188c-0.118,69.598,27.459,125.855,62.635,132.347c0,0.003,0.381,0.042,0.381,0.042
					c2.373,0.363,32.07,11.694,124.955,0.53c2.462-42.357,4.028-282.169,4.028-282.169S2789.245,2820.142,2743.542,2829.818z"/>
				<g>
					
						<linearGradient id="SVGID_00000089536978719539062820000017968832979972917695_" gradientUnits="userSpaceOnUse" x1="2978.6111" y1="2720.6987" x2="2773.8772" y2="3122.0701">
						<stop  offset="0" style="stop-color:#EBEFF2"/>
						<stop  offset="0.9946" style="stop-color:#B7C0CE"/>
					</linearGradient>
					<path style="fill:url(#SVGID_00000089536978719539062820000017968832979972917695_);" d="M2928.983,2960.107
						c0,79.61-34.71,145.58-76.775,147.242c-41.259,1.63-74.067-59.448-73.99-136.321c0.077-76.794,32.951-142.447,74.134-146.783
						C2894.339,2819.823,2928.983,2880.581,2928.983,2960.107z"/>
					<path style="fill:#FFFFFF;" d="M2896.073,2961.932c-0.012,56.49-23.145,103.448-51.332,104.83
						c-27.822,1.364-50.072-42.301-50.023-97.475c0.049-55.134,22.351-101.937,50.136-104.607
						C2873.004,2861.976,2896.086,2905.485,2896.073,2961.932z"/>
				</g>
			</g>
			<g>
				
					<linearGradient id="SVGID_00000144328577549701325630000010790164180552531847_" gradientUnits="userSpaceOnUse" x1="870.3706" y1="3058.1128" x2="1156.1398" y2="3058.1128">
					<stop  offset="0" style="stop-color:#444B8C"/>
					<stop  offset="0.9964" style="stop-color:#3E4177"/>
				</linearGradient>
				<path style="fill:url(#SVGID_00000144328577549701325630000010790164180552531847_);" d="M977.738,2863.218
					c-0.038,0-0.076,0-0.114,0c-10.371,0-18.277,5.227-27.783,9.87c-9.168,3.539-15.076,10.574-18.601,16.6v0.148
					c-38.769,31.449-60.87,94.444-60.87,166.987c0,96.535,41.141,176.093,95.508,187.014c0,0.004-0.519,0.056-0.519,0.056
					c3.635,0.628,48.246,17.61,185.403,7.476c3.528-55.999,5.377-376.38,5.377-376.38S1046.862,2856.169,977.738,2863.218z"/>
				<g>
					
						<linearGradient id="SVGID_00000044874307864282008940000012802239357174518950_" gradientUnits="userSpaceOnUse" x1="1305.46" y1="2739.4087" x2="1034.2644" y2="3271.075">
						<stop  offset="0" style="stop-color:#444B8C"/>
						<stop  offset="0.9964" style="stop-color:#3E4177"/>
					</linearGradient>
					
						<ellipse style="fill:url(#SVGID_00000044874307864282008940000012802239357174518950_);" cx="1139.914" cy="3063.953" rx="109.37" ry="188.303"/>
					
						<linearGradient id="SVGID_00000127034154317739992550000017501320860208463030_" gradientUnits="userSpaceOnUse" x1="1055.2411" y1="3063.2175" x2="1202.8312" y2="3063.2175">
						<stop  offset="0" style="stop-color:#444B8C"/>
						<stop  offset="0.9964" style="stop-color:#3E4177"/>
					</linearGradient>
					
						<ellipse style="fill:url(#SVGID_00000127034154317739992550000017501320860208463030_);" cx="1129.036" cy="3063.218" rx="73.795" ry="134.647"/>
				</g>
			</g>
			
				<linearGradient id="SVGID_00000064341143300808151920000001957945847459208115_" gradientUnits="userSpaceOnUse" x1="1212.3832" y1="3674.7002" x2="-842.8138" y2="6265.6138">
				<stop  offset="0" style="stop-color:#FCB148"/>
				<stop  offset="0.0521" style="stop-color:#FDBA46"/>
				<stop  offset="0.1424" style="stop-color:#FFC244"/>
				<stop  offset="0.3183" style="stop-color:#FFC444"/>
				<stop  offset="0.4849" style="stop-color:#FDB946"/>
				<stop  offset="0.7754" style="stop-color:#F99C4D"/>
				<stop  offset="0.8658" style="stop-color:#F8924F"/>
				<stop  offset="1" style="stop-color:#F8924F"/>
			</linearGradient>
			<path style="fill:url(#SVGID_00000064341143300808151920000001957945847459208115_);" d="M2971.708,2874.871
				c3.824,17.323-1.07,35.421-13.105,48.455l-22.266,24.115c-6.104-71.144-42.908-125.863-87.44-125.863
				c-48.747,0-88.34,65.691-88.34,146.699c0,19.213,2.206,37.519,6.295,54.33l-9.737,4.025l-526.039,97.432
				c1.426-10.841,4.057-22.071,4.057-33.494c0-10.321,0.159-20.383,0.159-30.25c0-0.065,0-0.065,0-0.13
				c-17.622-83.865-60.525-147.737-119.464-147.737c-65.887,0-120.263,79.776-120.263,178.117c0,26.873,3.547,52.317,10.684,75.166
				l-78.652,14.54c-0.063,0.13-0.316,1.72-0.506,1.85c-2.466,2.662-21.476,19.441-114.43,19.441H786.744
				c-46.414,0-81.069-40.504-81.069-86.915v-3.83c0-17.786,8.564-34.013,24.468-41.997c0,0-28.399-81.399-5.876-178.765
				c9.02-38.882,25.59-80.296,55.517-120.085c17.394-23.109,38.886-45.633,65.89-66.794c0,0,116.746-96.847,330.953-122.031
				c0,0,177.552-129.067,340.02-214.619c80.105-42.192,167.879-63.701,258.431-63.701h593.872
				c103.078,0,204.21,28.713,291.903,82.98l154.683,95.56c0,0,36.937,22.012,74.584,74.719
				c42.839,59.913,86.59,159.553,77.957,311.511L2971.708,2874.871L2971.708,2874.871z"/>
			
				<linearGradient id="SVGID_00000079444759886803325650000017225312702022395054_" gradientUnits="userSpaceOnUse" x1="1369.4038" y1="2844.5444" x2="1238.5253" y2="3576.3987">
				<stop  offset="0" style="stop-color:#FCB148"/>
				<stop  offset="0.0521" style="stop-color:#FDBA46"/>
				<stop  offset="0.1424" style="stop-color:#FFC244"/>
				<stop  offset="0.3183" style="stop-color:#FFC444"/>
				<stop  offset="0.4849" style="stop-color:#FDB946"/>
				<stop  offset="0.7754" style="stop-color:#F99C4D"/>
				<stop  offset="0.8658" style="stop-color:#F8924F"/>
				<stop  offset="1" style="stop-color:#F8924F"/>
			</linearGradient>
			<path style="fill:url(#SVGID_00000079444759886803325650000017225312702022395054_);" d="M1927.358,3180.276
				c-0.063,0.13-0.197,1.72-0.387,1.85c-7.144,4.479-16.164,26.49-254.129,19.441H786.744c-46.414,0-81.069-40.504-81.069-86.915
				v-3.83c0-1.038-1.433-2.013-1.369-3.051c1.04-16.553,10.098-31.417,25.09-38.947l1031.711,9.737c0,0,97.306-17.721,130.675-0.26
				c4.672,2.466,8.02,5.583,9.707,9.542C1915.509,3120.169,1933.849,3165.152,1927.358,3180.276z"/>
			<g style="opacity:0.8;">
				<path style="fill:#FFFFFF;" d="M962.326,2892.137v13.437c0,10.45-4.285,20.381-11.816,27.65
					c-7.531,7.206-17.654,11.036-28.107,10.581l-110.349-4.673c-26.484-1.103-51.599-12.139-70.362-30.898l-18.174-18.175
					c9.02-38.882,25.964-80.296,55.891-120.085c0.387,0.065,0.78,0.065,1.166,0.13l52.968,41.802
					c28.044,22.135,61.272,36.74,96.587,42.387C948.698,2857.279,962.326,2873.312,962.326,2892.137z"/>
			</g>
			<g style="opacity:0.4;">
				
					<linearGradient id="SVGID_00000062155014947439220960000000262859902126931380_" gradientUnits="userSpaceOnUse" x1="985.7399" y1="2876.8486" x2="1456.9097" y2="2876.8486">
					<stop  offset="0" style="stop-color:#FCB148"/>
					<stop  offset="0.0521" style="stop-color:#FDBA46"/>
					<stop  offset="0.1424" style="stop-color:#FFC244"/>
					<stop  offset="0.3183" style="stop-color:#FFC444"/>
					<stop  offset="0.4849" style="stop-color:#FDB946"/>
					<stop  offset="0.7754" style="stop-color:#F99C4D"/>
					<stop  offset="0.8658" style="stop-color:#F8924F"/>
					<stop  offset="1" style="stop-color:#F8924F"/>
				</linearGradient>
				<path style="fill:url(#SVGID_00000062155014947439220960000000262859902126931380_);" d="M1452.118,2876.743
					c-7.257,8.727-19.369,15.833-26.874,15.845c-137.841-0.016-275.552-0.032-413.107-0.049c-7.492-0.009-18.09-7.125-23.535-15.823
					l0,0c-5.407-8.648-2.921-15.602,5.521-15.606c151.714,0,303.609,0,455.672,0
					C1458.202,2861.132,1459.391,2868.079,1452.118,2876.743C1452.111,2876.743,1452.111,2876.743,1452.118,2876.743z"/>
				
					<linearGradient id="SVGID_00000156575531024703401310000012012765802152703140_" gradientUnits="userSpaceOnUse" x1="1019.8114" y1="2933.2422" x2="1411.4899" y2="2933.2422">
					<stop  offset="0" style="stop-color:#FCB148"/>
					<stop  offset="0.0521" style="stop-color:#FDBA46"/>
					<stop  offset="0.1424" style="stop-color:#FFC244"/>
					<stop  offset="0.3183" style="stop-color:#FFC444"/>
					<stop  offset="0.4849" style="stop-color:#FDB946"/>
					<stop  offset="0.7754" style="stop-color:#F99C4D"/>
					<stop  offset="0.8658" style="stop-color:#F8924F"/>
					<stop  offset="1" style="stop-color:#F8924F"/>
				</linearGradient>
				<path style="fill:url(#SVGID_00000156575531024703401310000012012765802152703140_);" d="M1405.568,2933.17
					c-7.672,9.137-18.791,16.639-24.935,16.626c-112.009-0.038-223.93-0.075-335.75-0.112c-6.11,0.002-15.727-7.48-21.455-16.618
					l0,0c-5.713-9.083-4.503-16.392,2.542-16.379c126.686,0.027,253.494,0.053,380.423,0.08
					C1413.468,2916.771,1413.163,2924.075,1405.568,2933.17C1405.575,2933.171,1405.575,2933.171,1405.568,2933.17z"/>
			</g>
			<path style="opacity:0.8;fill:#FFFFFF;" d="M1572.11,2946.658c-25.144-0.649-45.235-18.881-45.235-41.151v-13.581
				c0-21.172,18.227-38.892,42.027-40.969l44.867-3.912l267.026-70.32l-5.846,33.659c-8.851,50.859-47.704,93.661-101.903,112.25
				l-39.653,13.601c-26.097,8.951-53.996,13.19-81.971,12.468L1572.11,2946.658z"/>
			<path style="opacity:0.4;fill:#FFFFFF;" d="M1891.593,3079.381l-111.388,30.55H702.809c1.04-17.622,10.846-32.497,25.838-40.027
				l1032.085,9.737C1760.732,3079.641,1858.225,3061.92,1891.593,3079.381z"/>
			<g>
				
					<linearGradient id="SVGID_00000151537242242400099560000003498287434068496024_" gradientUnits="userSpaceOnUse" x1="2482.6563" y1="2892.2585" x2="2682.1814" y2="2695.5432">
					<stop  offset="0" style="stop-color:#FCB148"/>
					<stop  offset="0.0521" style="stop-color:#FDBA46"/>
					<stop  offset="0.1424" style="stop-color:#FFC244"/>
					<stop  offset="0.3183" style="stop-color:#FFC444"/>
					<stop  offset="0.4849" style="stop-color:#FDB946"/>
					<stop  offset="0.7754" style="stop-color:#F99C4D"/>
					<stop  offset="0.8658" style="stop-color:#F8924F"/>
					<stop  offset="1" style="stop-color:#F8924F"/>
				</linearGradient>
				<path style="fill:url(#SVGID_00000151537242242400099560000003498287434068496024_);" d="M2593.221,3004.197
					c-0.07,0-0.133,0-0.203,0c-3.581-7.049-6.396-4.866-6.294-8.448c0.07-2.171,6.409-219.022,0.019-306.922
					c-5.54-76.147-18.294-89.96-19.423-90.994c-2.802-1.569-4.076-5.232-2.853-8.297c1.331-3.328,5.122-5.045,8.437-3.727
					c4.691,1.876,20.488,14.674,26.782,101.245c6.44,88.562,0.082,306.929,0.019,309.107
					C2599.598,2999.68,2596.714,3004.197,2593.221,3004.197z"/>
			</g>
			
				<linearGradient id="SVGID_00000111186263644222529280000016501054493057356713_" gradientUnits="userSpaceOnUse" x1="2339.801" y1="3234.448" x2="2958.0393" y2="2624.9163">
				<stop  offset="0" style="stop-color:#FCB148"/>
				<stop  offset="0.0521" style="stop-color:#FDBA46"/>
				<stop  offset="0.1424" style="stop-color:#FFC244"/>
				<stop  offset="0.3183" style="stop-color:#FFC444"/>
				<stop  offset="0.4849" style="stop-color:#FDB946"/>
				<stop  offset="0.7754" style="stop-color:#F99C4D"/>
				<stop  offset="0.8658" style="stop-color:#F8924F"/>
				<stop  offset="1" style="stop-color:#F8924F"/>
			</linearGradient>
			<path style="opacity:0.5;fill:url(#SVGID_00000111186263644222529280000016501054493057356713_);" d="M2971.723,2874.871
				l-3.615-7.271c8.634-151.958-35.085-251.594-77.924-311.509c-27.002,1.559-63.156,14.996-60.429,76.27
				c4.282,96.783-15.056,146.765-88.603,191.034c-34.921,20.965-73.215,39.011-104.174,65.82
				c-27.648,24.017-40.558,60.885-68.728,83.475c-47.644,38.168-112.293,21.226-167.79,18.694
				c-50.568-2.337-165.168-4.739-165.168,68.806c0,0.064,0,0.064,0,0.13c0,9.866-0.157,19.928-0.157,30.249
				c0,11.424-2.74,22.652-4.164,33.493l526.089-97.431l9.764-4.025c-4.089-16.812-6.281-35.116-6.281-54.33
				c0-81.009,39.6-146.699,88.347-146.699c44.53,0,81.337,54.719,87.442,125.864l22.272-24.118
				C2970.637,2910.29,2975.538,2892.195,2971.723,2874.871z"/>
			<g>
				<g>
					
						<linearGradient id="SVGID_00000156557007043760904800000013058857981598336896_" gradientUnits="userSpaceOnUse" x1="1221.9705" y1="2466.7161" x2="2260.5461" y2="2466.7161">
						<stop  offset="0" style="stop-color:#444B8C"/>
						<stop  offset="0.9964" style="stop-color:#3E4177"/>
					</linearGradient>
					<path style="fill:url(#SVGID_00000156557007043760904800000013058857981598336896_);" d="M2260.546,2348.646
						c0,0-69.26,177.235-86.527,203.2c-1.623,2.401-3.702,5.987-6.168,8.064c-23.949,19.991-82.565,24.875-82.565,24.875H1221.97
						c192.59-148.028,357.01-236.139,357.01-236.139H2260.546z"/>
					<g>
						
							<linearGradient id="SVGID_00000099629243964644690390000009477393807765868953_" gradientUnits="userSpaceOnUse" x1="2447.292" y1="2457.9475" x2="2791.1934" y2="2457.9475">
							<stop  offset="0" style="stop-color:#444B8C"/>
							<stop  offset="0.9964" style="stop-color:#3E4177"/>
						</linearGradient>
						<path style="fill:url(#SVGID_00000099629243964644690390000009477393807765868953_);" d="M2791.193,2497.608
							c0,0-92.112,37.649-215.829,73.09c-4.025-19.083-10.517-43.037-20.969-69.389c-19.213-48.748-51.796-105.805-107.103-156.111
							c42.781,3.116,92.891,11.425,145.726,29.86C2657.866,2397.646,2726.739,2435.488,2791.193,2497.608z"/>
						
							<linearGradient id="SVGID_00000065059721332227019460000011857970392806688699_" gradientUnits="userSpaceOnUse" x1="2202.1262" y1="2488.0261" x2="2543.6887" y2="2488.0261">
							<stop  offset="0" style="stop-color:#444B8C"/>
							<stop  offset="0.9964" style="stop-color:#3E4177"/>
						</linearGradient>
						<path style="fill:url(#SVGID_00000065059721332227019460000011857970392806688699_);" d="M2543.689,2579.526
							c-61.666,16.681-129.435,32.131-196.679,41.996c-38.3,5.583-76.403,9.348-113.074,10.451
							c-10.713,0.325-21.356,0.455-31.809,0.325c0,0,0-0.065,0.063-0.13c1.623-6.881,67.25-275.872,128.136-283.855
							c14.022-1.818,36.157-4.155,64.068-4.608c65.754,48.618,103.794,109.049,125.6,160.719
							C2532.266,2533.439,2539.467,2559.663,2543.689,2579.526z"/>
					</g>
				</g>
				
					<linearGradient id="SVGID_00000091719724911182445680000009589932524979287946_" gradientUnits="userSpaceOnUse" x1="1448.848" y1="2814.9041" x2="1943.1434" y2="2327.5696">
					<stop  offset="0" style="stop-color:#444B8C"/>
					<stop  offset="0.9964" style="stop-color:#3E4177"/>
				</linearGradient>
				<path style="opacity:0.3;fill:url(#SVGID_00000091719724911182445680000009589932524979287946_);" d="M2167.852,2559.827
					c-23.949,19.992-82.565,24.959-82.565,24.959H1221.97c192.59-148.028,357.01-236.139,357.01-236.139h12.203
					c19.087,7.049,37.78,24.03,54.331,47.592C1712.308,2491.462,2081.325,2419.294,2167.852,2559.827z"/>
				
					<linearGradient id="SVGID_00000059996695318037746190000002096000518061619133_" gradientUnits="userSpaceOnUse" x1="2209.8677" y1="2640.1501" x2="2226.1602" y2="2624.0872">
					<stop  offset="0" style="stop-color:#444B8C"/>
					<stop  offset="0.9964" style="stop-color:#3E4177"/>
				</linearGradient>
				<path style="opacity:0.3;fill:url(#SVGID_00000059996695318037746190000002096000518061619133_);" d="M2233.935,2631.973
					c-10.713,0.325-21.356,0.455-31.809,0.325c0,0,0-0.065,0.063-0.13C2210.823,2632.103,2221.536,2632.038,2233.935,2631.973z"/>
				
					<linearGradient id="SVGID_00000008864844401758852660000008379470596237642138_" gradientUnits="userSpaceOnUse" x1="2379.7603" y1="2654.7405" x2="2526.022" y2="2510.5383">
					<stop  offset="0" style="stop-color:#444B8C"/>
					<stop  offset="0.9964" style="stop-color:#3E4177"/>
				</linearGradient>
				<path style="opacity:0.3;fill:url(#SVGID_00000008864844401758852660000008379470596237642138_);" d="M2519.993,2504.424
					c12.272,29.015,19.473,55.239,23.695,75.103c-61.666,16.681-129.435,32.131-196.679,41.996
					c9.477-9.41,18.237-21.289,25.895-36.154C2406.336,2520.781,2465.339,2509.68,2519.993,2504.424z"/>
				
					<linearGradient id="SVGID_00000147208283923253740200000010196525091350825380_" gradientUnits="userSpaceOnUse" x1="2565.7314" y1="2560.9272" x2="2711.7175" y2="2416.9968">
					<stop  offset="0" style="stop-color:#444B8C"/>
					<stop  offset="0.9964" style="stop-color:#3E4177"/>
				</linearGradient>
				<path style="opacity:0.3;fill:url(#SVGID_00000147208283923253740200000010196525091350825380_);" d="M2791.193,2497.608
					c0,0-92.112,37.649-215.829,73.09c-4.025-19.083-10.517-43.037-20.969-69.389c32.975-3.311,61.475-8.439,77.767-28.042
					c28.563-34.533-6.878-73.22-39.143-98.209C2657.866,2397.646,2726.739,2435.488,2791.193,2497.608z"/>
			</g>
			<g>
				
					<linearGradient id="SVGID_00000034084741564905467880000005267429750421652106_" gradientUnits="userSpaceOnUse" x1="2277.8127" y1="2627.5806" x2="2482.0361" y2="2426.2332">
					<stop  offset="0" style="stop-color:#FCB148"/>
					<stop  offset="0.0521" style="stop-color:#FDBA46"/>
					<stop  offset="0.1424" style="stop-color:#FFC244"/>
					<stop  offset="0.3183" style="stop-color:#FFC444"/>
					<stop  offset="0.4849" style="stop-color:#FDB946"/>
					<stop  offset="0.7754" style="stop-color:#F99C4D"/>
					<stop  offset="0.8658" style="stop-color:#F8924F"/>
					<stop  offset="1" style="stop-color:#F8924F"/>
				</linearGradient>
				<path style="fill:url(#SVGID_00000034084741564905467880000005267429750421652106_);" d="M2210.724,2631.228
					c0,0,27.326-107.865,66.157-112.179c38.831-4.315,149.573-35.955,159.64,17.258c10.067,53.213-10.067,79.762-66.157,83.027
					s-93.483,0-93.483,0l-25.887,27.714C2250.994,2647.048,2209.286,2675.812,2210.724,2631.228z"/>
				
					<linearGradient id="SVGID_00000036229204905404955150000008908881530963040953_" gradientUnits="userSpaceOnUse" x1="2166.46" y1="2724.6035" x2="2370.6836" y2="2523.2561">
					<stop  offset="0" style="stop-color:#FCB148"/>
					<stop  offset="0.0521" style="stop-color:#FDBA46"/>
					<stop  offset="0.1424" style="stop-color:#FFC244"/>
					<stop  offset="0.3183" style="stop-color:#FFC444"/>
					<stop  offset="0.4849" style="stop-color:#FDB946"/>
					<stop  offset="0.7754" style="stop-color:#F99C4D"/>
					<stop  offset="0.8658" style="stop-color:#F8924F"/>
					<stop  offset="1" style="stop-color:#F8924F"/>
				</linearGradient>
				<path style="fill:url(#SVGID_00000036229204905404955150000008908881530963040953_);" d="M2197.781,2631.228
					c0,0,27.326-107.865,66.157-112.179c38.831-4.315,149.573-35.955,159.64,17.258s-10.067,79.762-66.157,83.027
					c-56.09,3.265-93.483,0-93.483,0l-25.887,27.714C2238.05,2647.048,2196.342,2675.812,2197.781,2631.228z"/>
			</g>
		</g>
		<g>
			
				<linearGradient id="SVGID_00000088831751758678657130000006493199884119730822_" gradientUnits="userSpaceOnUse" x1="2888.05" y1="1554.6066" x2="2940.5452" y2="1599.2983" gradientTransform="matrix(0.9592 0.2827 -0.2827 0.9592 236.165 -555.8664)">
				<stop  offset="0" style="stop-color:#AB316D"/>
				<stop  offset="1" style="stop-color:#792D3D"/>
			</linearGradient>
			<path style="fill:url(#SVGID_00000088831751758678657130000006493199884119730822_);" d="M2589.385,1825.423
				c5.303-4.77,16.873-37.412,16.514-56.031c-0.359-18.619-2.978-51.057-9.47-42.253c-6.492,8.805-9.248,31.377-9.248,31.377
				s-30.037-0.571-27.258,28.018c2.78,28.589,2.034,41.036,11.447,43.81C2580.783,1833.119,2589.385,1825.423,2589.385,1825.423z"/>
			
				<linearGradient id="SVGID_00000065790618026280358010000004220027625909730743_" gradientUnits="userSpaceOnUse" x1="2629.406" y1="1960.5878" x2="2933.0969" y2="2656.5466">
				<stop  offset="0" style="stop-color:#FF9085"/>
				<stop  offset="1" style="stop-color:#FB6FBB"/>
			</linearGradient>
			<path style="fill:url(#SVGID_00000065790618026280358010000004220027625909730743_);" d="M2694.835,2184.215
				c-2.654,0.372-5.347,0.71-8.076,1.046c-3.552,0.449-7.066,0.823-10.505,1.159c-131.371,12.375-188.944-57.162-203.038-140.157
				c-17.645-103.78,32.6-228.645,91.443-240.945c107.146-22.431,32.376,158.287,51.068,186.625
				c13.72,20.823,118.958,2.579,173.99-8.636c19.963-4.038,33.347-7.178,33.347-7.178S2991.633,2144.137,2694.835,2184.215z"/>
			
				<linearGradient id="SVGID_00000004530916842971530720000014156179559769456046_" gradientUnits="userSpaceOnUse" x1="1737.1782" y1="3187.792" x2="1737.1782" y2="3124.7043" gradientTransform="matrix(1 0 0 1 1315.7783 0)">
				<stop  offset="0" style="stop-color:#AB316D"/>
				<stop  offset="1" style="stop-color:#792D3D"/>
			</linearGradient>
			<path style="fill:url(#SVGID_00000004530916842971530720000014156179559769456046_);" d="M3035.694,3129.651
				c0,0,13.781,34.653,10.155,50.022c14.797-0.29,24.371-2.175,24.371-2.175s-5.948-15.804-7.108-23.633
				c-1.568-10.579-1.451-27.693-1.451-27.693L3035.694,3129.651z"/>
			<path style="fill:#26264F;" d="M2780.97,3220.365c0.849,1.025,2.356,3.165,2.483,6.066c0.069,1.576-0.292,2.872-0.745,4.064
				c-2.239,5.89-5.757,6.667-9.552,12.916c-2.318,3.819-1.881,4.97-4.005,6.694c-2.8,2.271-6.188,2.401-9.124,2.435
				c-4.961,0.057-12.104-0.121-21.099-1.192c4.713-6.072,9.726-12.239,15.056-18.466c2.338-2.731,4.672-5.398,6.999-8.002
				l13.858-4.68C2776.885,3220.256,2778.928,3220.31,2780.97,3220.365z"/>
			
				<linearGradient id="SVGID_00000130612820525462604540000005861282221738727072_" gradientUnits="userSpaceOnUse" x1="1443.0753" y1="3215.667" x2="1443.0753" y2="3143.2148" gradientTransform="matrix(1 0 0 1 1315.7783 0)">
				<stop  offset="0" style="stop-color:#AB316D"/>
				<stop  offset="1" style="stop-color:#792D3D"/>
			</linearGradient>
			<path style="fill:url(#SVGID_00000130612820525462604540000005861282221738727072_);" d="M2769.446,3153.119
				c0,0-7.921,41.31,2.159,52.877c8.587,11.567-4.147,3.316-4.147,3.316l-15.206,13.264l-9.124,15.751
				c0,0,8.399-40.431,6.159-56.476c-2.24-16.045-3.36-26.866-3.36-26.866L2769.446,3153.119z"/>
			
				<linearGradient id="SVGID_00000052082546866962577580000012323338585137044889_" gradientUnits="userSpaceOnUse" x1="-88.5679" y1="3248.8909" x2="-359.7556" y2="2153.9734" gradientTransform="matrix(-1 0 0 1 2666.2153 0)">
				<stop  offset="0" style="stop-color:#444B8C"/>
				<stop  offset="0.9964" style="stop-color:#26264F"/>
			</linearGradient>
			<path style="fill:url(#SVGID_00000052082546866962577580000012323338585137044889_);" d="M2691.925,2377.345
				c-10.131,33.452-24.597,87.444-33.909,155.184c-26.562,193.218,29.894,199.381,19.351,413.49
				c-3.365,68.344,59.209,225.939,64.725,229.42c2.67,0.258,5.566,0.433,8.655,0.339c5.443-0.165,13.116-0.999,22.04-3.674
				c9.912-1.707,45.65-98.507,37.367-156.059c-5.862-40.733-4.163-84.449-0.765-171.88c0.551-14.167,36.797-275.622,36.797-275.622
				l0,0c11.025,96.777,23.705,179.005,34.698,242.759c35.317,204.827,150.15,328.803,156.14,330.792
				c1.183,0.476,11.958,4.39,20.769-1.417c3.92-2.584,5.255-5.919,5.255-5.919c3.072-2.405-0.905-204.497-35.931-356.589
				c-50.839-220.76-28.701-272.414-44.808-371.019C2968.369,2321.827,2691.925,2377.345,2691.925,2377.345z"/>
			<g>
				<path style="fill:#26264F;" d="M3042.223,3192.823c0,0-3.435,0-3.148,4.434c0.286,4.434-1.547,19.688,15.913,20.403
					c17.46,0.715,20.153-1.235,20.725-1.235c0.572,0-4.58-14.59-4.58-14.59l-5.582-7.152l-15.027-1.573L3042.223,3192.823z"/>
				<path style="fill:#444B8C;" d="M3080.938,3208.134c-0.372-3.684-2.435-9.482-4.509-14.147c-3.083-6.932-0.552-9.526-3.499-15.84
					c-1.018-2.182-2.009-4.253-4.161-6.304c-0.495-0.472-5.313-4.922-12.33-4.695c-1.38,0.044-3.506,0.137-5.804,1.361
					c-2.707,1.442-4.064,3.608-5.222,5.51c-1.821,2.989-1.403,3.906-4.207,12.469c-0.225,0.687-0.719,2.181-1.099,4.243
					c-0.291,1.578-0.408,2.904-0.46,3.809c4.58,0,22.183,0.715,25.904,3.433c3.721,2.718,5.582,7.295,5.582,11.873
					s2.29,6.723,4.58,6.58C3077.759,3216.297,3081.823,3212.51,3080.938,3208.134z"/>
			</g>
			<path style="fill:#444B8C;" d="M2767.319,3200.192c3.748,0.059,6.497,3.04,8.571,10.224c2.074,7.185,12.027,13.54,0.415,12.021
				s-20.045,14.922-24.192,21.001c-4.147,6.079-15.28,11.481-15.004,5.54s5.188-8.718,6.571-14.797
				C2745.063,3228.102,2758.771,3200.059,2767.319,3200.192z"/>
			
				<linearGradient id="SVGID_00000019658764069322837740000012046848287243564476_" gradientUnits="userSpaceOnUse" x1="2753.5024" y1="1959.8958" x2="3009.7407" y2="2547.1086">
				<stop  offset="0" style="stop-color:#FF9085"/>
				<stop  offset="1" style="stop-color:#FB6FBB"/>
			</linearGradient>
			<path style="fill:url(#SVGID_00000019658764069322837740000012046848287243564476_);" d="M3058.066,2054.938
				c-50.208,103.108-54.245,131.258-72.002,202.925c-7.851,31.591-23.329,65.573-11.104,122.436
				c1.794,8.45,4.224,17.384,7.366,26.879c-24.114,12.711-58.357,26.955-101.164,33.311
				c-93.687,13.945-172.306-14.131-202.851-29.797c-7.028-32.224-14.766-79.629-6.953-182.363c0.71-8.936,1.982-23.515,4.898-41.908
				c2.692-16.973,6.692-37.199,12.71-59.069c0.785-2.804,1.608-5.608,2.429-8.448c8.187-27.889,16.338-46.656,25.348-62.695
				c12.449-22.206,26.169-38.619,30.169-43.292c4.299-5.084,7.776-8.859,8.486-9.532c10.356-9.31,22.057-15.739,34.32-20.076
				c38.245-13.609,81.984-7.103,107.557-6.354c30.205,0.896,88.415,2.28,120.716,40.525
				C3039.038,2042.45,3071.936,2026.525,3058.066,2054.938z"/>
			<g>
				
					<linearGradient id="SVGID_00000008138247348790519740000006661918996214151818_" gradientUnits="userSpaceOnUse" x1="1616.6877" y1="1917.8601" x2="1550.4265" y2="2025.0474" gradientTransform="matrix(1 0 0 1 1315.7783 0)">
					<stop  offset="0" style="stop-color:#AB316D"/>
					<stop  offset="1" style="stop-color:#792D3D"/>
				</linearGradient>
				<path style="fill:url(#SVGID_00000008138247348790519740000006661918996214151818_);" d="M2870.906,1932.723
					c2.64-20.367,18.74-33.416,22.253-36.209c14.71-11.692,17.704-12.87,22.756-13.83l6.899-1.045c0,0,0.371,0.008,0.753,0.032
					c4.039,0.245,16.145,4.97,18.346,6.517c7.031,4.944,1.854,39.96-19.461,83.509c-0.838,3.688-1.675,7.376-2.514,11.064
					c18.577,3.265,23.18,6.616,23.326,9.292c0.316,5.797-20.023,13.192-38.876,13.674c-23.64,0.604-48.74-9.568-48.26-17.159
					c0.195-3.073,4.653-6.864,21.818-10.584c2.682-3.772,5.364-7.543,8.046-11.315
					C2883.558,1963.716,2868.961,1947.726,2870.906,1932.723z"/>
				<path style="fill:#26264F;" d="M2915.915,1868.352c-7.416,7.244-9.234,19.839-7.041,28.917c1.311,5.429,3.008,6.001,2.766,9.555
					c-0.679,9.984-18.865,14.333-17.853,19.362c0.723,3.593,10.188,2.279,11.818,6.789c1.786,4.942-8.607,9.194-13.075,21.625
					c-0.696,1.938-4.923,13.699,0.502,20.619c5.065,6.459,16.393,4.929,29.168,3.269c14.091-1.831,24.197-5.993,27.156-7.292
					c9.325-4.094,19.351-8.495,27.659-18.607c1.969-2.396,13.542-16.919,12.572-37.214c-1.274-26.667-23.569-49.438-46.518-53.056
					C2939.352,1861.731,2925.009,1859.469,2915.915,1868.352z"/>
				
					<linearGradient id="SVGID_00000013905421897093368310000000370623658207653820_" gradientUnits="userSpaceOnUse" x1="972.6154" y1="1535.9738" x2="908.4943" y2="1639.699" gradientTransform="matrix(0.9717 -0.2361 0.2361 0.9717 1600.9902 640.4755)">
					<stop  offset="0" style="stop-color:#AB316D"/>
					<stop  offset="1" style="stop-color:#792D3D"/>
				</linearGradient>
				<path style="fill:url(#SVGID_00000013905421897093368310000000370623658207653820_);" d="M2900.129,1925.054
					c5.361-3.208,9.446,3.69,6.921,9.718c-2.525,6.028-11.013,9.8-16.161,6.207
					C2885.741,1937.385,2892.914,1929.372,2900.129,1925.054z"/>
			</g>
			
				<linearGradient id="SVGID_00000060743566909952902620000017773195376442835109_" gradientUnits="userSpaceOnUse" x1="-309.9977" y1="2264.054" x2="-257.8696" y2="2471.3108" gradientTransform="matrix(-1 0 0 1 2666.2153 0)">
				<stop  offset="0" style="stop-color:#AB316D"/>
				<stop  offset="1" style="stop-color:#792D3D"/>
			</linearGradient>
			<path style="fill:url(#SVGID_00000060743566909952902620000017773195376442835109_);" d="M2975.496,2323.475
				c0,0-4.71,3.14-11.933,1.57c-7.222-1.57-16.015-7.537-23.866-10.049s-8.479,9.107,3.14,15.073
				c11.619,5.966,21.668,17.899,26.064,27.006c4.396,9.107,15.387-10.991,15.387-10.991L2975.496,2323.475z"/>
			
				<linearGradient id="SVGID_00000121265657820229040710000002055768677797778327_" gradientUnits="userSpaceOnUse" x1="2936.2278" y1="1880.1711" x2="3192.458" y2="2467.3655">
				<stop  offset="0" style="stop-color:#FF9085"/>
				<stop  offset="1" style="stop-color:#FB6FBB"/>
			</linearGradient>
			<path style="fill:url(#SVGID_00000121265657820229040710000002055768677797778327_);" d="M2980.528,1992.134
				c17.84-0.727,98.931-2.103,165.926,58.719c13.471,12.23,77.49,70.35,72.065,153.471
				c-6.507,99.699-109.576,184.14-188.836,172.108c-18.484-2.806-33.49-10.527-44.706-18.192c0,0,0.002,0,0,0l-13.183-37.293
				c-0.213-26.649,14.363-45.28,21.858-55.573c18.478-25.376,44.824-29.811,48.71-52.297c2.15-12.441-3.919-22.629-9.342-31.731
				c-18.469-31.001-47.962-34.824-63.225-50.681C2954.038,2114.295,2936.018,2073.269,2980.528,1992.134z"/>
			
				<linearGradient id="SVGID_00000108303183851380837230000003954301480810475654_" gradientUnits="userSpaceOnUse" x1="2473.2166" y1="2245.261" x2="2982.325" y2="2245.261">
				<stop  offset="0" style="stop-color:#FF9085"/>
				<stop  offset="1" style="stop-color:#FB6FBB"/>
			</linearGradient>
			<path style="opacity:0.3;fill:url(#SVGID_00000108303183851380837230000003954301480810475654_);" d="M2982.325,2407.177
				c-24.114,12.711-58.357,26.955-101.164,33.311c-93.687,13.945-172.306-14.131-202.851-29.797
				c-7.028-32.224-14.766-79.629-6.953-182.363c0.71-8.936,1.982-23.515,4.898-41.908
				c-131.371,12.375-188.944-57.162-203.038-140.157c25.534,41.872,68.938,93.387,125.203,85.575
				c69.984-9.757,84.638-24.262,90.545-4.487c1.944,6.469,2.917,16.637,4.636,31.89c0.785,6.991,1.157,15.44,1.234,24.974
				c0.747,74.545-14.282,213.541,34.617,207.747c52.339-6.207,183.299,28.002,245.506-11.665
				C2976.754,2388.748,2979.183,2397.681,2982.325,2407.177z"/>
		</g>
		<g>
			
				<linearGradient id="SVGID_00000060735124586954897240000011592614495403106955_" gradientUnits="userSpaceOnUse" x1="842.147" y1="2034.7726" x2="819.3053" y2="2622.936">
				<stop  offset="0" style="stop-color:#444B8C"/>
				<stop  offset="0.9964" style="stop-color:#26264F"/>
			</linearGradient>
			<path style="fill:url(#SVGID_00000060735124586954897240000011592614495403106955_);" d="M1230.271,2361.823
				c-17.307-21.63-43.897-42.126-65.913-47.883c-67.507-17.655-146.657,30.752-246.855,92.037
				c-118.034,72.194-251.816,154.017-341.445,102.059c-31.268-18.126-50.298-43.767-58.177-78.387
				c-25.994-114.218,74.123-294.602,114.894-354.469l-37.718-25.721l-37.702-25.746c-6.902,10.108-168.584,249.578-128.538,426.051
				c13.603,59.946,47.735,106.129,101.448,137.268c34.995,20.286,71.865,28.749,109.592,28.748
				c109.621-0.002,226.446-71.454,325.288-131.909c65.13-39.837,146.185-89.403,176.113-81.592
				c0.954,0.249,13.744,12.052,24.646,22.912c4.194,4.178,9.914,6.467,15.833,6.355c5.919-0.112,11.538-2.619,15.574-6.951
				l31.91-34.258C1236.596,2382.417,1237.031,2370.274,1230.271,2361.823z"/>
			<g>
				
					<linearGradient id="SVGID_00000119826924526473872190000009917443851747919239_" gradientUnits="userSpaceOnUse" x1="3187.9199" y1="1109.1191" x2="2853.8237" y2="1937.568" gradientTransform="matrix(0.8062 0.5916 -0.5916 0.8062 -59.5792 -1488.1396)">
					<stop  offset="0" style="stop-color:#444B8C"/>
					<stop  offset="0.9964" style="stop-color:#26264F"/>
				</linearGradient>
				<path style="fill:url(#SVGID_00000119826924526473872190000009917443851747919239_);" d="M1593.744,1515.523
					c0,0-2.206,0.617-6.344,1.776c-4.156,1.082-10.215,2.835-18.004,4.751c-7.785,1.951-17.218,4.427-28.124,6.93
					c-10.898,2.576-23.194,5.518-36.68,8.47c-26.993,5.976-58.657,12.49-92.792,18.916c-17.086,3.264-34.813,6.424-52.866,9.566
					l-3.392,0.582c-0.383,0.081,2.575-0.58,1.223-0.28l-0.21,0.044l-0.422,0.087l-0.843,0.175l-1.688,0.349l-3.38,0.699
					c-0.893,0.206-0.971,0.293-1.507,0.42c-0.43,0.114-0.866,0.211-1.313,0.293c-0.444,0.078-1.23,0.411-1.836,0.593
					c-1.299,0.43-2.632,0.802-3.887,1.359c-5.148,1.953-10.083,4.626-14.595,7.943c-9.135,6.546-16.456,15.688-21.191,26.174
					l-0.854,1.987l-0.444,1.004l-0.558,1.598l-2.224,6.373c-1.51,4.229-3.014,8.435-4.508,12.615
					c-3.02,8.349-6.004,16.595-8.937,24.704c-11.854,32.378-23.468,62.403-33.838,87.993c-5.168,12.794-10.091,24.461-14.494,34.788
					c-4.308,10.353-8.324,19.298-11.592,26.675c-3.217,7.391-5.982,13.127-7.769,17.067c-1.857,3.918-2.848,6.008-2.848,6.008
					c-3.451,7.277-12.367,10.285-19.921,6.716c-6.034-2.851-9.37-9.057-8.717-15.144c0,0,0.25-2.311,0.721-6.644
					c0.542-4.313,1.193-10.683,2.324-18.703c1.083-8.038,2.349-17.817,4.103-28.95c1.662-11.166,3.583-23.758,5.885-37.441
					c4.579-27.399,10.425-59.256,17.301-93.253c1.752-8.497,3.534-17.139,5.339-25.89c0.92-4.371,1.846-8.77,2.775-13.192
					l1.447-6.635l0.363-1.664l0.588-2.229l1.218-4.488c6.775-23.929,20.685-46.319,39.742-63.533
					c9.545-8.582,20.33-15.896,31.948-21.65c2.867-1.517,5.859-2.773,8.866-3.996c1.557-0.62,2.875-1.229,4.636-1.836l5.292-1.767
					l5.101-1.586l3.334-0.908l1.664-0.453l0.832-0.226l0.415-0.113l0.208-0.057l1.649-0.37l3.353-0.792
					c17.866-4.174,35.445-8.204,52.489-11.889c34.01-7.449,65.81-13.854,93.111-18.927c13.624-2.566,26.158-4.675,37.251-6.574
					c11.069-1.968,20.781-3.386,28.754-4.641c7.961-1.287,14.271-2.049,18.545-2.682c4.292-0.556,6.579-0.851,6.579-0.851
					c22.487-2.911,43.608,13.073,47.202,35.667C1625.503,1491.107,1613.034,1510.145,1593.744,1515.523z"/>
				<g>
					
						<linearGradient id="SVGID_00000010305994336056069800000015804588185548282282_" gradientUnits="userSpaceOnUse" x1="2693.0022" y1="1760.0859" x2="3263.6743" y2="1760.0859" gradientTransform="matrix(0.8062 0.5916 -0.5916 0.8062 -59.5792 -1488.1396)">
						<stop  offset="0" style="stop-color:#444B8C"/>
						<stop  offset="0.9964" style="stop-color:#3E4177"/>
					</linearGradient>
					<path style="fill:url(#SVGID_00000010305994336056069800000015804588185548282282_);" d="M1635.81,1717.877l-206.324,281.177
						c-34.082,46.447-90.902,68.465-148.31,57.598l-181.34-34.146c-22.918-4.362-44.051-13.369-62.248-26.029
						c-31.806-22.129-54.723-55.43-62.977-94.406l-40.602-192.385l0.796-0.145l89.27-55.741l54.453,230.725
						c4.005,19.245,19.362,34.129,39.153,37.977l182.735,35.869c17.636,3.441,36.475-2.75,47.296-17.497l207.36-282.589
						c14.881-20.28,20.613-45.405,18.242-69.153l-11.704-119.758l99.41-6.393l2.278-0.258L1674,1581.361
						C1678.625,1629.402,1665.091,1677.972,1635.81,1717.877z"/>
				</g>
				<g style="opacity:0.2;">
					
						<linearGradient id="SVGID_00000003815937429530905220000010476659846331294102_" gradientUnits="userSpaceOnUse" x1="2693.5496" y1="1748.927" x2="3238.5864" y2="1748.927" gradientTransform="matrix(0.8062 0.5916 -0.5916 0.8062 -59.5792 -1488.1396)">
						<stop  offset="0" style="stop-color:#444B8C"/>
						<stop  offset="0.9964" style="stop-color:#3E4177"/>
					</linearGradient>
					<path style="fill:url(#SVGID_00000003815937429530905220000010476659846331294102_);" d="M1629.902,1683.523l-206.572,281.515
						c-34.123,46.503-90.832,68.633-148.324,57.667l-181.514-34.391c-22.952-4.402-44.07-13.421-62.296-26.133
						c-31.857-22.219-54.79-55.607-63.062-94.678l-33.335-157.966l89.277-55.737l54.451,230.724
						c4.005,19.245,19.363,34.129,39.154,37.977l182.735,35.87c17.636,3.441,36.476-2.75,47.296-17.496l207.36-282.589
						c14.881-20.28,20.613-45.405,18.242-69.153l-11.704-119.758l99.41-6.393l7.364,83.976
						C1673.025,1595.108,1659.219,1643.57,1629.902,1683.523z"/>
				</g>
				
					<linearGradient id="SVGID_00000132809014016830890720000004352457066350625458_" gradientUnits="userSpaceOnUse" x1="2536.1394" y1="2333.2854" x2="2703.3972" y2="2333.2854" gradientTransform="matrix(0.8062 0.5916 -0.5916 0.8062 -59.5792 -1488.1396)">
					<stop  offset="0" style="stop-color:#444B8C"/>
					<stop  offset="0.9964" style="stop-color:#3E4177"/>
				</linearGradient>
				<path style="fill:url(#SVGID_00000132809014016830890720000004352457066350625458_);" d="M748.369,1697.531l-270.712,368.924
					c-5.141,7.006-7.194,15.809-5.682,24.366c1.513,8.557,6.459,16.124,13.69,20.943l86.294,57.513
					c14.161,9.438,33.24,6.065,43.307-7.655l270.118-368.115L748.369,1697.531z"/>
				
					<linearGradient id="SVGID_00000074416695176607049200000009106382842772502204_" gradientUnits="userSpaceOnUse" x1="2582.1333" y1="2333.3701" x2="2665.7666" y2="2333.3701" gradientTransform="matrix(0.8062 0.5916 -0.5916 0.8062 -59.5792 -1488.1396)">
					<stop  offset="0" style="stop-color:#444B8C"/>
					<stop  offset="0.9964" style="stop-color:#3E4177"/>
				</linearGradient>
				<polygon style="opacity:0.3;fill:url(#SVGID_00000074416695176607049200000009106382842772502204_);" points="565.906,2165.283 
					496.309,2118.779 786.067,1723.898 854.547,1771.925 				"/>
				
					<linearGradient id="SVGID_00000002380985668920172500000016258544590680619919_" gradientUnits="userSpaceOnUse" x1="2616.3547" y1="2277.4724" x2="2586.4478" y2="2536.1687" gradientTransform="matrix(0.8062 0.5916 -0.5916 0.8062 -59.5792 -1488.1396)">
					<stop  offset="0" style="stop-color:#444B8C"/>
					<stop  offset="0.9964" style="stop-color:#3E4177"/>
				</linearGradient>
				<path style="fill:url(#SVGID_00000002380985668920172500000016258544590680619919_);" d="M826.056,1923.831l-21.124,28.788
					c-4.255,5.798-12.392,7.346-18.583,3.063L622.674,1843.1c-6.326-4.382-8.086-12.727-3.757-18.626l21.347-29.091
					c4.304-5.865,12.804-7.2,19.13-2.818l163.572,113.285C829.158,1910.135,830.335,1918,826.056,1923.831z"/>
				
					<linearGradient id="SVGID_00000062170741622611224220000014176159439193179273_" gradientUnits="userSpaceOnUse" x1="2616.6658" y1="2270.6001" x2="2589.502" y2="2505.5667" gradientTransform="matrix(0.8062 0.5916 -0.5916 0.8062 -59.5792 -1488.1396)">
					<stop  offset="0" style="stop-color:#444B8C"/>
					<stop  offset="0.9964" style="stop-color:#3E4177"/>
				</linearGradient>
				<path style="opacity:0.1;fill:url(#SVGID_00000062170741622611224220000014176159439193179273_);" d="M826.056,1923.831
					l-16.177,22.046c-4.254,5.798-12.392,7.346-18.583,3.063l-163.675-112.583c-6.326-4.383-8.086-12.727-3.757-18.626l16.4-22.35
					c4.304-5.865,12.804-7.2,19.13-2.818l163.572,113.285C829.158,1910.135,830.335,1918,826.056,1923.831z"/>
				<g>
					
						<linearGradient id="SVGID_00000150792845291241258310000004940189280258581927_" gradientUnits="userSpaceOnUse" x1="3608.9409" y1="-1836.6481" x2="4025.9246" y2="-1836.6481" gradientTransform="matrix(0.4724 0.8814 -0.8814 0.4724 -1018.8508 -1678.4611)">
						<stop  offset="0" style="stop-color:#EBEFF2"/>
						<stop  offset="0.9946" style="stop-color:#B7C0CE"/>
					</linearGradient>
					<path style="fill:url(#SVGID_00000150792845291241258310000004940189280258581927_);" d="M2733.655,862.282l-230.459-171.291
						c-11.289-8.404-25.828-9.795-37.899-3.629l-428.997,219.144l-50.592-100.638l431.583-219.138
						c45.898-23.305,100.935-17.775,143.558,14.253l229.699,172.623c11.416,8.593,14.392,25.319,6.634,37.389l-9.279,14.453
						l-19.496,30.394C2760.651,867.907,2745.107,870.809,2733.655,862.282z"/>
					<g style="opacity:0.5;">
						<path style="fill:#FFFFFF;" d="M2787.903,825.447l-262.607-203.238c-23.596-15.315-52.52-17.125-76.809-4.764l-384.3,195.57
							l-30.382-31.569l383.486-194.717c45.898-23.305,100.935-17.775,143.558,14.253l229.699,172.623
							c11.416,8.593,14.392,25.319,6.634,37.389L2787.903,825.447z"/>
					</g>
					
						<linearGradient id="SVGID_00000158714851811737746590000006792312196586309274_" gradientUnits="userSpaceOnUse" x1="3607.0027" y1="-1962.3912" x2="3743.8474" y2="-1962.3912" gradientTransform="matrix(0.4724 0.8814 -0.8814 0.4724 -1018.8508 -1678.4611)">
						<stop  offset="0" style="stop-color:#EBEFF2"/>
						<stop  offset="0.9946" style="stop-color:#B7C0CE"/>
					</linearGradient>
					<path style="fill:url(#SVGID_00000158714851811737746590000006792312196586309274_);" d="M2475.861,696.192
						c-4.749,2.428-10.585,0.236-13.035-4.898l-50.085-104.946c-2.476-5.188-0.605-11.364,4.179-13.791l1.332-0.676
						c4.782-2.427,10.662-0.186,13.132,5.002l49.969,104.945c2.444,5.134,0.577,11.261-4.17,13.688L2475.861,696.192z"/>
					
						<linearGradient id="SVGID_00000076581172473607115220000014619749972150894773_" gradientUnits="userSpaceOnUse" x1="3605.7937" y1="-1908.7078" x2="3742.8059" y2="-1908.7078" gradientTransform="matrix(0.4724 0.8814 -0.8814 0.4724 -1018.8508 -1678.4611)">
						<stop  offset="0" style="stop-color:#EBEFF2"/>
						<stop  offset="0.9946" style="stop-color:#B7C0CE"/>
					</linearGradient>
					<path style="fill:url(#SVGID_00000076581172473607115220000014619749972150894773_);" d="M2428.186,720.562
						c-4.76,2.433-10.617,0.246-13.082-4.888l-50.383-104.948c-2.49-5.188-0.622-11.368,4.173-13.802l1.335-0.678
						c4.794-2.432,10.694-0.196,13.179,4.992l50.267,104.947c2.459,5.134,0.595,11.266-4.164,13.698L2428.186,720.562z"/>
					
						<linearGradient id="SVGID_00000111155842163513794990000000302301382098284211_" gradientUnits="userSpaceOnUse" x1="3604.5818" y1="-1854.8979" x2="3741.762" y2="-1854.8979" gradientTransform="matrix(0.4724 0.8814 -0.8814 0.4724 -1018.8508 -1678.4611)">
						<stop  offset="0" style="stop-color:#EBEFF2"/>
						<stop  offset="0.9946" style="stop-color:#B7C0CE"/>
					</linearGradient>
					<path style="fill:url(#SVGID_00000111155842163513794990000000302301382098284211_);" d="M2380.4,744.989
						c-4.771,2.439-10.649,0.257-13.128-4.878l-50.682-104.949c-2.506-5.188-0.64-11.373,4.166-13.812l1.339-0.679
						c4.805-2.438,10.727-0.206,13.227,4.982l50.565,104.949c2.474,5.134,0.612,11.27-4.158,13.708L2380.4,744.989z"/>
					
						<linearGradient id="SVGID_00000158723209302239208980000005125730051656115606_" gradientUnits="userSpaceOnUse" x1="3603.2319" y1="-1794.9603" x2="3740.5991" y2="-1794.9603" gradientTransform="matrix(0.4724 0.8814 -0.8814 0.4724 -1018.8508 -1678.4611)">
						<stop  offset="0" style="stop-color:#EBEFF2"/>
						<stop  offset="0.9946" style="stop-color:#B7C0CE"/>
					</linearGradient>
					<path style="fill:url(#SVGID_00000158723209302239208980000005125730051656115606_);" d="M2327.172,772.198
						c-4.784,2.445-10.685,0.268-13.181-4.866l-51.016-104.951c-2.522-5.188-0.66-11.379,4.159-13.824l1.342-0.681
						c4.818-2.445,10.763-0.218,13.279,4.97l50.898,104.95c2.49,5.134,0.632,11.276-4.151,13.72L2327.172,772.198z"/>
					
						<linearGradient id="SVGID_00000092448383345122710170000016662163908634847105_" gradientUnits="userSpaceOnUse" x1="3566.0491" y1="-1503.074" x2="3769.6123" y2="-1503.074" gradientTransform="matrix(0.4724 0.8814 -0.8814 0.4724 -1018.8508 -1678.4611)">
						<stop  offset="0" style="stop-color:#EBEFF2"/>
						<stop  offset="0.9946" style="stop-color:#B7C0CE"/>
					</linearGradient>
					<path style="fill:url(#SVGID_00000092448383345122710170000016662163908634847105_);" d="M2105.622,906.273
						c6.297-5.191,8.055-14.42,4.227-22.097c-19.75-39.608-39.577-79.37-59.478-119.281c-3.882-7.786-12.326-11.909-20.28-9.874
						c-25.67,6.568-51.382,13.146-77.134,19.735c30.705,60.98,61.23,121.603,91.58,181.877
						C2064.912,939.837,2085.273,923.049,2105.622,906.273z"/>
					<g style="opacity:0.5;">
						<polygon style="fill:#FFFFFF;" points="2074.339,812.961 1990.256,848.83 1967.735,804.105 2051.929,768.019 						"/>
					</g>
				</g>
				
					<linearGradient id="SVGID_00000098186458555916394090000014977177578941742227_" gradientUnits="userSpaceOnUse" x1="2427.1719" y1="1372.588" x2="3242.7576" y2="1372.588" gradientTransform="matrix(0.8062 0.5916 -0.5916 0.8062 -59.5792 -1488.1396)">
					<stop  offset="0" style="stop-color:#AA80F9"/>
					<stop  offset="0.9964" style="stop-color:#6165D7"/>
				</linearGradient>
				<path style="fill:url(#SVGID_00000098186458555916394090000014977177578941742227_);" d="M1913.451,1304.171l-140.129,190.967
					c-29.501,40.204-84.374,51.922-129.267,27.421l-280.929-153.508c-46.511-25.385-104.002-14.2-134.217,26.977L925.736,1809.19
					c-14.133,19.26-41.629,23.681-62.172,9.321l-121.189-84.716c-20.882-14.597-26.038-42.084-11.744-61.564l331.465-451.718
					l30.62-147.102c11.225-54.139,44.638-99.895,92.289-126.591l451.66-253.028c42.274-23.654,95.514-18.186,135.186,13.767
					l43.114,34.729c13.545,10.909,30.342,16.191,46.931,14.805l54.059-4.57c26.319-2.24,51.935,12.461,64.726,37.033l62.785,120.787
					c5.229,10.083,7.797,20.971,7.876,31.664c0.118,17.708-6.608,34.925-19.572,47.341l-25.644,24.511
					c-30.044,28.678-48.566,68.007-52.141,110.599l-7.741,91.595C1943.526,1248.191,1932.151,1278.687,1913.451,1304.171z"/>
				
					<linearGradient id="SVGID_00000141436125038281400130000006169848551221758349_" gradientUnits="userSpaceOnUse" x1="2532.4963" y1="1396.4796" x2="3242.7576" y2="1396.4796" gradientTransform="matrix(0.8062 0.5916 -0.5916 0.8062 -59.5792 -1488.1396)">
					<stop  offset="0" style="stop-color:#AA80F9"/>
					<stop  offset="0.9964" style="stop-color:#6165D7"/>
				</linearGradient>
				<path style="opacity:0.3;fill:url(#SVGID_00000141436125038281400130000006169848551221758349_);" d="M1913.451,1304.171
					l-140.129,190.967c-29.501,40.204-84.374,51.922-129.267,27.421l-280.929-153.508c-46.511-25.385-104.002-14.2-134.217,26.977
					L925.736,1809.19c-14.133,19.26-41.629,23.681-62.172,9.321l-38.658-27.011c-20.04-14.009-26.714-41.721-12.931-60.505
					l319.646-435.611l30.684-140.873c10.872-52.087,43.919-95.503,89.766-121.308l434.964-244.701
					c40.76-22.918,91.756-17.428,129.909,13.167l41.501,33.276c13.021,10.442,29.526,15.11,45.474,13.706l52.421-4.967
					c25.321-2.221,50.023,11.838,62.291,35.443l32.711,62.877c0.118,17.708-6.607,34.926-19.571,47.342l-25.644,24.511
					c-30.044,28.678-48.565,68.007-52.141,110.599l-7.741,91.595C1943.526,1248.191,1932.151,1278.687,1913.451,1304.171z"/>
			</g>
		</g>
		<g>
			<g>
				<g>
					<g>
						
							<linearGradient id="SVGID_00000166661237120527585570000014899434870793277354_" gradientUnits="userSpaceOnUse" x1="2780.2859" y1="1477.3423" x2="2810.7493" y2="854.7407">
							<stop  offset="0.0036" style="stop-color:#26264F"/>
							<stop  offset="1" style="stop-color:#444B8C"/>
						</linearGradient>
						<path style="fill:url(#SVGID_00000166661237120527585570000014899434870793277354_);" d="M3102.939,1300.346
							c0,164.584-133.623,301.545-302.768,308.199c-1.634,0.059-3.27,0.118-4.923,0.158
							c-175.345,4.265-320.428-132.485-320.428-305.532c0-160.674,125.253-291.347,283.714-306.898
							c12.055-1.189,24.307-1.707,36.714-1.516C2966.709,997.385,3102.939,1134.177,3102.939,1300.346z"/>
						
							<linearGradient id="SVGID_00000162321989511925954580000018092529586059523509_" gradientUnits="userSpaceOnUse" x1="2781.7095" y1="1477.3259" x2="2812.1714" y2="854.754">
							<stop  offset="0.0036" style="stop-color:#26264F"/>
							<stop  offset="1" style="stop-color:#444B8C"/>
						</linearGradient>
						<path style="fill:url(#SVGID_00000162321989511925954580000018092529586059523509_);" d="M3067.055,1300.507
							c0,146.788-120.502,268.431-271.807,271.755c-154.32,3.391-281.698-117.136-281.698-269.266s127.378-273.802,281.698-271.799
							C2946.552,1033.161,3067.055,1153.719,3067.055,1300.507z"/>
						<g>
							<defs>
								<path id="SVGID_00000102528979834435298400000015831278384897660049_" d="M3038.459,1300.636
									c0,131.345-107.938,239.991-243.211,242.71c-137.679,2.768-251.1-104.882-251.1-240.487
									c0-135.605,113.421-244.275,251.1-242.745C2930.521,1061.616,3038.459,1169.291,3038.459,1300.636z"/>
							</defs>
							
								<linearGradient id="SVGID_00000150098915736818515570000013155585717615168423_" gradientUnits="userSpaceOnUse" x1="2782.7112" y1="1477.3147" x2="2813.1721" y2="854.7657">
								<stop  offset="0.0036" style="stop-color:#26264F"/>
								<stop  offset="1" style="stop-color:#444B8C"/>
							</linearGradient>
							
								<use xlink:href="#SVGID_00000102528979834435298400000015831278384897660049_"  style="overflow:visible;fill:url(#SVGID_00000150098915736818515570000013155585717615168423_);"/>
							<clipPath id="SVGID_00000104681624759792809880000011907119543427317179_">
								<use xlink:href="#SVGID_00000102528979834435298400000015831278384897660049_"  style="overflow:visible;"/>
							</clipPath>
						</g>
					</g>
				</g>
				
					<linearGradient id="SVGID_00000103233303504673895140000001039327735865732537_" gradientUnits="userSpaceOnUse" x1="2636.6116" y1="1470.1606" x2="2667.1101" y2="846.841">
					<stop  offset="0.0036" style="stop-color:#26264F"/>
					<stop  offset="1" style="stop-color:#444B8C"/>
				</linearGradient>
				<path style="opacity:0.2;fill:url(#SVGID_00000103233303504673895140000001039327735865732537_);" d="M2736.074,1454.531
					c-4.335,46.113,2.491,84.48,25.492,116.486c9.805,13.661,22.543,26.131,38.605,37.528c-1.634,0.059-3.27,0.118-4.923,0.158
					c-175.345,4.265-320.428-132.485-320.428-305.532c0-160.674,125.253-291.347,283.714-306.898
					c10.045,9.894,19.744,21.485,28.166,34.948c24.586,39.176,38.673,94.213,20.565,169.655c-3.05,12.718-7.017,26.03-12.017,39.958
					c-11.179,31.181-21.378,60.382-30.087,87.725c-4.985,15.69-9.482,30.757-13.396,45.235
					C2743.876,1403.04,2738.368,1429.879,2736.074,1454.531z"/>
			</g>
			<g>
				<g>
					
						<linearGradient id="SVGID_00000118355343716779135650000004130030639779737518_" gradientUnits="userSpaceOnUse" x1="3164.1846" y1="-196.5284" x2="2806.4497" y2="1353.6577">
						<stop  offset="0.0036" style="stop-color:#E38DDD"/>
						<stop  offset="1" style="stop-color:#9571F6"/>
					</linearGradient>
					<path style="fill:url(#SVGID_00000118355343716779135650000004130030639779737518_);" d="M3131.073,1300.186
						c0,164.199-132.997,300.833-301.342,307.462c-1.626,0.059-3.254,0.117-4.899,0.157
						c-174.505,4.245-318.887-132.181-318.887-304.808c0-160.284,124.646-290.642,282.348-306.162
						c11.998-1.187,24.191-1.703,36.539-1.514C2995.481,997.938,3131.073,1134.405,3131.073,1300.186z"/>
					
						<linearGradient id="SVGID_00000077308871133072200950000010795330584032996483_" gradientUnits="userSpaceOnUse" x1="2821.5686" y1="1364.7515" x2="2832.96" y2="1801.4268">
						<stop  offset="0.0036" style="stop-color:#E38DDD"/>
						<stop  offset="1" style="stop-color:#9571F6"/>
					</linearGradient>
					<path style="fill:url(#SVGID_00000077308871133072200950000010795330584032996483_);" d="M3095.356,1300.347
						c0,146.444-119.937,267.796-270.524,271.104c-153.582,3.374-280.345-116.867-280.345-268.627
						c0-151.76,126.763-273.141,280.345-271.148C2975.42,1033.63,3095.356,1153.903,3095.356,1300.347z"/>
					<g>
						<defs>
							<path id="SVGID_00000038397786125192146630000007934716879520813701_" d="M3066.894,1300.475
								c0,131.037-107.43,239.423-242.062,242.129c-137.021,2.755-249.895-104.64-249.895-239.917
								c0-135.277,112.875-243.686,249.895-242.164C2959.464,1062.019,3066.894,1169.438,3066.894,1300.475z"/>
						</defs>
						
							<linearGradient id="SVGID_00000025428572902288798750000001854606466846206602_" gradientUnits="userSpaceOnUse" x1="3094.8379" y1="824.8704" x2="2511.8445" y2="1839.1202">
							<stop  offset="0.0036" style="stop-color:#E38DDD"/>
							<stop  offset="1" style="stop-color:#9571F6"/>
						</linearGradient>
						
							<use xlink:href="#SVGID_00000038397786125192146630000007934716879520813701_"  style="overflow:visible;fill:url(#SVGID_00000025428572902288798750000001854606466846206602_);"/>
						<clipPath id="SVGID_00000158019310105104531230000016186921202653060248_">
							<use xlink:href="#SVGID_00000038397786125192146630000007934716879520813701_"  style="overflow:visible;"/>
						</clipPath>
					</g>
				</g>
			</g>
			<path style="opacity:0.2;fill:#FFFFFF;" d="M2773.245,1453.999c-4.314,46.002,2.479,84.279,25.37,116.209
				c9.758,13.629,22.435,26.069,38.421,37.441c-1.626,0.059-3.254,0.117-4.899,0.157
				c-174.505,4.245-318.887-132.181-318.887-304.808c0-160.284,124.646-290.642,282.348-306.162
				c9.997,9.87,19.65,21.433,28.032,34.864c24.469,39.082,38.489,93.988,20.467,169.25c-3.036,12.687-6.983,25.968-11.96,39.863
				c-11.126,31.107-21.276,60.238-29.943,87.516c-4.961,15.653-9.437,30.683-13.332,45.126
				C2781.01,1402.631,2775.528,1429.406,2773.245,1453.999z"/>
			<path style="fill:#FFFFFF;" d="M2965.445,1160.628c-29.117,40.316-103.03,41.436-207.18,59.354
				c-79.985,13.762-93.249,100.125-95.103,139.483c2.983-0.066,6.072-0.219,9.248-0.494c12.135-1.15,25.302-4.668,37.936-11.234
				c6.369-3.172,12.529-7.358,18.653-11.82c2.983-2.41,5.984-4.838,9.003-7.275l8.592-8.25c6.474-6.019,12.739-12.463,19.257-18.338
				c6.195-6.024,13.36-11.715,20.167-17.122c6.693-5.516,13.657-10.315,20.412-14.624c6.536-4.458,13.404-8.089,19.747-11.243
				c6.081-3.386,12.826-5.276,18.137-7.271c5.818-1.522,10.727-2.756,15.11-2.83c4.27-0.359,7.559-0.017,9.79,0.534
				c2.135,0.468,3.281,0.722,3.281,0.722s-1.076,0.464-3.097,1.33c-0.98,0.442-2.179,0.8-3.5,1.549
				c-1.304,0.857-2.782,1.745-4.392,2.682c-3.22,1.75-6.719,5.18-10.761,8.124c-3.841,3.85-8.25,7.306-12.712,12.218
				c-4.567,4.615-9.493,9.418-14.506,15.062c-5.162,5.363-10.525,11.024-15.924,17.078c-5.582,5.971-11.348,12.144-17.21,18.413
				c-5.976,6.47-12.109,12.874-18.566,19.148l-10.954,9.983c-3.92,3.097-8.146,5.831-12.17,8.688
				c-8.408,5.311-17.332,9.795-26.58,12.664c-9.125,3.071-18.487,4.554-27.262,4.856c-8.793,0.324-17.026-0.783-24.305-2.454
				c-2.695-0.674-5.127-1.514-7.559-2.327c0.044,1.137,0.079,1.776,0.079,1.776l17.918,20.158
				C2882.573,1541.391,2997.922,1301.734,2965.445,1160.628z"/>
		</g>
	</g>
</g>
</svg>
